<svg width="24" height="24" viewBox="0 0 24 24" fill="none" xmlns="http://www.w3.org/2000/svg">
  <!-- Hand gesture OK - thumb and index finger forming circle -->
  <path d="M8 14C8 12.3431 9.34315 11 11 11C12.6569 11 14 12.3431 14 14C14 15.6569 12.6569 17 11 17C9.34315 17 8 15.6569 8 14Z" stroke="currentColor" stroke-width="1.5" fill="none"/>
  <!-- Three fingers up -->
  <path d="M14.5 10L14.5 7" stroke="currentColor" stroke-width="1.5" stroke-linecap="round"/>
  <path d="M16 11L16 6" stroke="currentColor" stroke-width="1.5" stroke-linecap="round"/>
  <path d="M17.5 12L17.5 7" stroke="currentColor" stroke-width="1.5" stroke-linecap="round"/>
  <!-- Thumb -->
  <path d="M10.5 12.5C10.5 12.5 9 12 8.5 13.5" stroke="currentColor" stroke-width="1.5" stroke-linecap="round"/>
  <!-- Palm/wrist -->
  <path d="M8.5 16L17.5 16C18.3284 16 19 16.6716 19 17.5V19C19 19.5523 18.5523 20 18 20H8C7.44772 20 7 19.5523 7 19V17.5C7 16.6716 7.67157 16 8.5 16Z" stroke="currentColor" stroke-width="1.5"/>
</svg>