<svg width="48" height="46" viewBox="0 0 48 46" fill="none" xmlns="http://www.w3.org/2000/svg">
  <!-- Data cylinder — 2 stacked ellipses -->
  <ellipse cx="24" cy="38" rx="16" ry="4" fill="#60a5fa" opacity="0.25" />
  <rect x="8" y="31" width="32" height="7" fill="#60a5fa" opacity="0.15" />
  <ellipse cx="24" cy="31" rx="16" ry="4" fill="#60a5fa" opacity="0.4" />

  <!-- Left hemisphere outline -->
  <path
    d="M21 3
       C21 3 18.5 2.5 16.5 4
       C14.5 5.5 13.5 7 14 8.5
       C12.5 7.5 10.5 8 9 10
       C7.5 12 7.5 14 8.5 15.5
       C7 16 6.5 17.5 7 19
       C7.5 20.5 8.5 21.5 10 22
       C9.5 23 9.5 24 10.5 25
       C12 26.5 14.5 26 16.5 25
       C18 24.2 19.5 23 21 21.5
       L21 3z"
    stroke="#60a5fa"
    stroke-width="1.6"
    stroke-linecap="round"
    stroke-linejoin="round"
    fill="none"
  />
  <!-- Left inner folds -->
  <path d="M18.5 5.5 C16.5 7 16 9 17 10.5" stroke="#60a5fa" stroke-width="1.2" stroke-linecap="round" fill="none" />
  <path d="M13.5 9 C12.5 11 13 13 14.5 14" stroke="#60a5fa" stroke-width="1.2" stroke-linecap="round" fill="none" />
  <path d="M9.5 16 C10 18 11.5 19.5 13.5 19.5" stroke="#60a5fa" stroke-width="1.1" stroke-linecap="round" fill="none" />
  <path d="M12 22 C13.5 23 16 22.5 17.5 21" stroke="#60a5fa" stroke-width="1" stroke-linecap="round" fill="none" />
  <path d="M16.5 12 C15 14 15.5 16.5 17.5 17.5" stroke="#60a5fa" stroke-width="1" stroke-linecap="round" fill="none" />

  <!-- Right hemisphere outline -->
  <path
    d="M27 3
       C27 3 29.5 2.5 31.5 4
       C33.5 5.5 34.5 7 34 8.5
       C35.5 7.5 37.5 8 39 10
       C40.5 12 40.5 14 39.5 15.5
       C41 16 41.5 17.5 41 19
       C40.5 20.5 39.5 21.5 38 22
       C38.5 23 38.5 24 37.5 25
       C36 26.5 33.5 26 31.5 25
       C30 24.2 28.5 23 27 21.5
       L27 3z"
    stroke="#60a5fa"
    stroke-width="1.6"
    stroke-linecap="round"
    stroke-linejoin="round"
    fill="none"
  />
  <!-- Right inner folds -->
  <path d="M29.5 5.5 C31.5 7 32 9 31 10.5" stroke="#60a5fa" stroke-width="1.2" stroke-linecap="round" fill="none" />
  <path d="M34.5 9 C35.5 11 35 13 33.5 14" stroke="#60a5fa" stroke-width="1.2" stroke-linecap="round" fill="none" />
  <path d="M38.5 16 C38 18 36.5 19.5 34.5 19.5" stroke="#60a5fa" stroke-width="1.1" stroke-linecap="round" fill="none" />
  <path d="M36 22 C34.5 23 32 22.5 30.5 21" stroke="#60a5fa" stroke-width="1" stroke-linecap="round" fill="none" />
  <path d="M31.5 12 C33 14 32.5 16.5 30.5 17.5" stroke="#60a5fa" stroke-width="1" stroke-linecap="round" fill="none" />

  <!-- Center vertical line -->
  <line x1="24" y1="2.5" x2="24" y2="22" stroke="#60a5fa" stroke-width="1.6" stroke-linecap="round" />
</svg>
