<?xml version="1.0" standalone="no"?>
<!DOCTYPE svg PUBLIC "-//W3C//DTD SVG 20010904//EN"
 "http://www.w3.org/TR/2001/REC-SVG-20010904/DTD/svg10.dtd">
<svg version="1.0" xmlns="http://www.w3.org/2000/svg"
 width="512.000000pt" height="512.000000pt" viewBox="0 0 512.000000 512.000000"
 preserveAspectRatio="xMidYMid meet">

<g transform="translate(0.000000,512.000000) scale(0.100000,-0.100000)"
fill="#000000" stroke="none">
<path d="M3200 3862 l0 -299 -122 -6 c-445 -22 -810 -201 -1073 -527 -196
-243 -336 -589 -390 -968 -18 -120 -16 -152 5 -112 23 45 151 233 224 330 86
115 235 267 331 338 39 29 115 74 170 101 206 101 399 143 711 158 l144 6 0
-316 c0 -175 3 -317 6 -317 3 0 92 64 197 143 395 293 925 689 999 745 l77 59
-137 103 c-75 56 -363 273 -639 482 l-503 379 0 -299z"/>
<path d="M755 3501 c-48 -22 -79 -54 -100 -103 -13 -33 -15 -169 -15 -1158 0
-989 2 -1125 15 -1158 20 -47 50 -79 97 -103 37 -19 77 -19 1531 -17 l1493 3
42 28 c23 15 51 45 62 67 20 39 20 54 18 605 l-3 566 -187 -152 -188 -152 0
-293 0 -294 -1250 0 -1250 0 2 898 3 897 287 5 287 5 70 76 c74 81 199 189
295 257 l59 42 -614 0 c-576 0 -617 -2 -654 -19z"/>
</g>
</svg>
